<svg 
  xmlns="http://www.w3.org/2000/svg"
  viewBox="0 0 24 24"
  width="100%"
  height="100%"
  fill="currentColor"
  preserveAspectRatio="xMidYMid meet"
  role="img"
  aria-label="HotGigs Logo"
  shape-rendering="geometricPrecision"
  text-rendering="optimizeLegibility"
>
  <title>HotGigs</title>
  <desc>HotGigs recruitment platform logo</desc>
  
  <!-- Main logo mark - Stylized "H" with dynamic elements -->
  <path
    d="M6.2 3.4v17.2c0 .22.18.4.4.4h1.6c.22 0 .4-.18.4-.4v-7.2h6.8v7.2c0 .22.18.4.4.4h1.6c.22 0 .4-.18.4-.4V3.4c0-.22-.18-.4-.4-.4h-1.6c-.22 0-.4.18-.4.4v7.2H8.6V3.4c0-.22-.18-.4-.4-.4H6.6c-.22 0-.4.18-.4.4z"
    vector-effect="non-scaling-stroke"
  />
  
  <!-- Dynamic accent element -->
  <path
    d="M18.8 8.5c1.4-1.4 2.1-2.8 1.4-3.5-.7-.7-2.1 0-3.5 1.4-.14.14-.14.36 0 .5l1.6 1.6c.14.14.36.14.5 0z"
    vector-effect="non-scaling-stroke"
    opacity="0.9"
  />
  
  <!-- Connection nodes -->
  <circle cx="4.8" cy="12" r="0.8" vector-effect="non-scaling-stroke" />
  <circle cx="19.2" cy="12" r="0.8" vector-effect="non-scaling-stroke" />
  
  <!-- Optional: Animated pulse effect (works in supporting browsers) -->
  <style>
    @media (prefers-reduced-motion: no-preference) {
      circle {
        animation: pulse 2s infinite;
      }
      @keyframes pulse {
        0% { opacity: 0.4; }
        50% { opacity: 1; }
        100% { opacity: 0.4; }
      }
    }
    @media (prefers-color-scheme: dark) {
      svg { color: #ffffff; }
    }
    @media (prefers-color-scheme: light) {
      svg { color: #1a1a1a; }
    }
    @media (max-width: 640px) {
      svg { width: 24px; height: 24px; }
    }
    @media (min-width: 641px) and (max-width: 1024px) {
      svg { width: 32px; height: 32px; }
    }
    @media (min-width: 1025px) {
      svg { width: 48px; height: 48px; }
    }
  </style>
</svg>